<svg xmlns="http://www.w3.org/2000/svg" viewBox="0 0 1024 1024" width="1024" height="1024">
  <defs>
    <linearGradient id="bg" x1="0" y1="0" x2="0.4" y2="1">
      <stop offset="0%" stop-color="#1e3a6e"/>
      <stop offset="100%" stop-color="#0a1e3d"/>
    </linearGradient>
    <linearGradient id="col" x1="0" y1="0" x2="0" y2="1">
      <stop offset="0%" stop-color="#e8eef8"/>
      <stop offset="100%" stop-color="#c8d8f0"/>
    </linearGradient>
  </defs>

  <!-- Background: no rounded corners for Android adaptive icon -->
  <rect width="1024" height="1024" fill="url(#bg)"/>

  <!-- 3 columns centered within safe zone (~660px wide, ~660px tall, centered at 512,512) -->
  <!-- Safe zone: x 182–842, y 182–842 -->
  <!-- 3 columns: width=168, gap=24, total=168*3+24*2=552, start x=(1024-552)/2=236 -->
  <!-- Column height: 580, centered: y=(1024-580)/2=222 -->

  <!-- Column 1 (x: 236–404) -->
  <rect x="236" y="222" width="168" height="580" rx="18" fill="url(#col)"/>
  <rect x="260" y="264" width="116" height="14" rx="7" fill="#0a1e3d" opacity="0.22"/>
  <rect x="260" y="290" width="88"  height="11" rx="5" fill="#0a1e3d" opacity="0.13"/>
  <rect x="260" y="330" width="120" height="11" rx="5" fill="#0a1e3d" opacity="0.13"/>
  <rect x="260" y="349" width="96"  height="11" rx="5" fill="#0a1e3d" opacity="0.13"/>
  <rect x="260" y="368" width="108" height="11" rx="5" fill="#0a1e3d" opacity="0.13"/>
  <rect x="260" y="410" width="116" height="14" rx="7" fill="#0a1e3d" opacity="0.22"/>
  <rect x="260" y="436" width="80"  height="11" rx="5" fill="#0a1e3d" opacity="0.13"/>
  <rect x="260" y="455" width="104" height="11" rx="5" fill="#0a1e3d" opacity="0.13"/>
  <rect x="260" y="496" width="116" height="14" rx="7" fill="#0a1e3d" opacity="0.22"/>
  <rect x="260" y="522" width="92"  height="11" rx="5" fill="#0a1e3d" opacity="0.13"/>
  <rect x="260" y="541" width="112" height="11" rx="5" fill="#0a1e3d" opacity="0.13"/>

  <!-- Column 2 (x: 428–596) -->
  <rect x="428" y="222" width="168" height="580" rx="18" fill="url(#col)"/>
  <rect x="452" y="264" width="116" height="14" rx="7" fill="#0a1e3d" opacity="0.22"/>
  <rect x="452" y="290" width="72"  height="11" rx="5" fill="#0a1e3d" opacity="0.13"/>
  <rect x="452" y="330" width="120" height="11" rx="5" fill="#0a1e3d" opacity="0.13"/>
  <rect x="452" y="349" width="100" height="11" rx="5" fill="#0a1e3d" opacity="0.13"/>
  <rect x="452" y="368" width="84"  height="11" rx="5" fill="#0a1e3d" opacity="0.13"/>
  <rect x="452" y="410" width="116" height="14" rx="7" fill="#0a1e3d" opacity="0.22"/>
  <rect x="452" y="436" width="96"  height="11" rx="5" fill="#0a1e3d" opacity="0.13"/>
  <rect x="452" y="455" width="76"  height="11" rx="5" fill="#0a1e3d" opacity="0.13"/>
  <rect x="452" y="496" width="116" height="14" rx="7" fill="#0a1e3d" opacity="0.22"/>
  <rect x="452" y="522" width="108" height="11" rx="5" fill="#0a1e3d" opacity="0.13"/>
  <rect x="452" y="541" width="80"  height="11" rx="5" fill="#0a1e3d" opacity="0.13"/>

  <!-- Column 3 (x: 620–788) -->
  <rect x="620" y="222" width="168" height="580" rx="18" fill="url(#col)"/>
  <rect x="644" y="264" width="116" height="14" rx="7" fill="#0a1e3d" opacity="0.22"/>
  <rect x="644" y="290" width="96"  height="11" rx="5" fill="#0a1e3d" opacity="0.13"/>
  <rect x="644" y="330" width="120" height="11" rx="5" fill="#0a1e3d" opacity="0.13"/>
  <rect x="644" y="349" width="76"  height="11" rx="5" fill="#0a1e3d" opacity="0.13"/>
  <rect x="644" y="368" width="104" height="11" rx="5" fill="#0a1e3d" opacity="0.13"/>
  <rect x="644" y="410" width="116" height="14" rx="7" fill="#0a1e3d" opacity="0.22"/>
  <rect x="644" y="436" width="84"  height="11" rx="5" fill="#0a1e3d" opacity="0.13"/>
  <rect x="644" y="455" width="112" height="11" rx="5" fill="#0a1e3d" opacity="0.13"/>
  <rect x="644" y="496" width="116" height="14" rx="7" fill="#0a1e3d" opacity="0.22"/>
  <rect x="644" y="522" width="72"  height="11" rx="5" fill="#0a1e3d" opacity="0.13"/>
  <rect x="644" y="541" width="100" height="11" rx="5" fill="#0a1e3d" opacity="0.13"/>
</svg>
